<?xml version="1.0" standalone="no"?>
<!DOCTYPE svg PUBLIC "-//W3C//DTD SVG 1.1//EN" "http://www.w3.org/Graphics/SVG/1.1/DTD/svg11.dtd" >
<svg xmlns="http://www.w3.org/2000/svg">
<metadata>
This is a custom SVG webfont generated by Font Squirrel.
Copyright   : cThe digitally encoded machine readable outline data for producing the typefaces licensed to you is copyrighted C 1998 by The Foundry London All Rights Reserved
</metadata>
<defs>
<font id="FoundryGridnikLight" horiz-adv-x="1150" >
<font-face units-per-em="2048" ascent="1487" descent="-561" />
<missing-glyph horiz-adv-x="575" />
<glyph unicode=" "  horiz-adv-x="575" />
<glyph unicode="&#x09;" horiz-adv-x="575" />
<glyph unicode="&#xa0;" horiz-adv-x="575" />
<glyph unicode="!" horiz-adv-x="575" d="M244 0v86h86v-86h-86zM258 389v977h57v-977h-57z" />
<glyph unicode="&#x22;" horiz-adv-x="880" d="M256 963v403h61v-403h-61zM563 963v403h62v-403h-62z" />
<glyph unicode="#" d="M33 481v56h289l92 344h-273v55h289l129 485h57l-131 -485h301l132 485h57l-131 -485h274v-55h-289l-92 -344h273v-56h-287l-129 -481h-57l129 481h-304l-126 -481h-58l129 481h-274zM379 537h301l92 344h-301z" />
<glyph unicode="$" d="M162 170l41 41l141 -141q12 -12 29 -13h174v607l-258 55q-78 18 -102.5 43.5t-24.5 99.5v264q0 59 41 101l96 96q43 43 102 43h146v195h57v-195h152q59 0 100 -41l133 -133l-41 -41l-145 145q-12 12 -29 13h-170v-598l258 -56q78 -18 102.5 -43.5t24.5 -99.5v-283 q0 -59 -45 -104l-86 -86q-39 -39 -98 -39h-156v-195h-57v195h-158q-57 0 -98 41zM219 823q0 -33 37 -41l291 -61v588h-164q-16 0 -29 -13l-123 -122q-12 -12 -12 -29v-322zM604 57h172q18 0 31 13l113 112q12 12 12 29v340q0 33 -37 41l-291 61v-596z" />
<glyph unicode="%" horiz-adv-x="1703" d="M186 713v520q0 37 23 59l59 58q27 27 62 26h174q35 0 61 -26l58 -58q23 -23 22 -59v-518q0 -39 -22 -62l-58 -57q-27 -27 -61 -27h-174q-35 0 -62 27l-59 57q-23 23 -23 60zM238 700q0 -10 6 -16l57 -57q6 -6 16 -6h197q12 0 18 6l58 57q6 6 6 16v545q0 10 -6 17l-58 55 q-6 8 -18 8h-197q-10 0 -16 -8l-57 -55q-6 -6 -6 -17v-545zM459 0l741 1376h60l-744 -1376h-57zM1059 143v521q0 37 22 59l58 57q27 27 61 27h174q35 0 62 -27l59 -57q23 -23 23 -59v-519q0 -39 -23 -61l-59 -57q-27 -27 -62 -27h-174q-35 0 -61 27l-58 57q-22 22 -22 59z M1110 131q0 -12 6 -16l55 -58q6 -6 19 -6h196q10 0 17 6l57 58q6 6 6 16v545q0 10 -6 16l-57 56q-6 8 -17 8h-196q-12 0 -19 -8l-55 -56q-6 -4 -6 -16v-545z" />
<glyph unicode="&#x26;" horiz-adv-x="1400" d="M215 236v331q0 59 43 103l180 180l-159 160q-51 51 -52 102q0 45 56 100l100 101q53 53 98 53t99 -53l100 -101q55 -55 55 -100q0 -47 -53 -100l-162 -162l518 -520l164 164l39 -39q-160 -164 -162 -164l250 -250l-41 -41l-250 250l-207 -207q-43 -43 -102 -43h-278 q-59 0 -103 43l-90 90q-43 44 -43 103zM272 215q0 -16 13 -29l118 -116q12 -12 29 -13h316q16 0 28 13l221 221l-518 518l-194 -193q-12 -12 -13 -28v-373zM283 1109q0 -24 16 -40l180 -180l183 182q39 39 -3 82l-137 137q-41 41 -82 0l-137 -137q-20 -20 -20 -44z" />
<glyph unicode="'" horiz-adv-x="575" d="M256 963v403h61v-403h-61z" />
<glyph unicode="(" horiz-adv-x="735" d="M186 100v1057q0 59 43 103l394 393l41 -41l-410 -410q-12 -12 -12 -28v-1090q0 -16 12 -29l410 -409l-41 -41l-394 393q-43 43 -43 102z" />
<glyph unicode=")" horiz-adv-x="735" d="M72 -354l409 409q12 12 13 29v1090q0 16 -13 28l-409 410l41 41l393 -393q43 -43 43 -103v-1057q0 -59 -43 -102l-393 -393z" />
<glyph unicode="*" horiz-adv-x="1181" d="M129 1010l16 49l420 -135v442h51v-442l420 135l17 -49l-422 -138l258 -356l-41 -31l-258 355l-256 -355l-41 31l258 356z" />
<glyph unicode="+" d="M88 459v57h459v459h57v-459h459v-57h-459v-459h-57v459h-459z" />
<glyph unicode="," horiz-adv-x="575" d="M152 -268l92 94q10 10 10 29v256h61v-238q0 -61 -41 -102l-79 -80z" />
<glyph unicode="-" horiz-adv-x="983" d="M205 459v57h573v-57h-573z" />
<glyph unicode="." horiz-adv-x="575" d="M244 0v86h86v-86h-86z" />
<glyph unicode="/" horiz-adv-x="1067" d="M82 -172l852 1718h51l-852 -1718h-51z" />
<glyph unicode="0" d="M186 242v882q0 59 39 99l99 98q45 45 104 45h295q59 0 104 -45l99 -98q39 -39 39 -99v-876q0 -66 -39 -105l-99 -98q-45 -45 -104 -45h-295q-59 0 -104 45l-99 98q-39 40 -39 99zM244 225q0 -18 10 -28l127 -127q12 -12 31 -13h327q18 0 31 13l127 127q10 10 10 28v916 q0 18 -10 28l-127 127q-12 12 -31 13h-327q-18 0 -31 -13l-127 -127q-10 -10 -10 -28v-916z" />
<glyph unicode="1" d="M215 0v57h332v1231l-291 -260l-41 41l332 297h57v-1309h332v-57h-721z" />
<glyph unicode="2" d="M186 0v377q0 51 17.5 78.5t66.5 52.5l613 303q25 10 24 37v293q0 18 -10 28l-127 127q-12 12 -31 13h-327q-18 0 -31 -13l-148 -147l-40 41l131 131q45 45 104 45h295q59 0 104 -45l99 -98q39 -39 39 -99v-247q0 -51 -17.5 -79t-66.5 -53l-613 -303q-25 -10 -24 -36v-349 h721v-57h-779z" />
<glyph unicode="3" d="M193 176l40 41l148 -147q12 -12 31 -13h327q18 0 31 13l127 127q10 10 10 28v342q0 18 -10 29l-84 84q-12 12 -31 12h-364v58h364q18 0 31 12l84 84q10 10 10 28v267q0 18 -10 28l-127 127q-12 12 -31 13h-327q-18 0 -31 -13l-148 -147l-40 41l131 131q45 45 104 45h295 q59 0 104 -45l99 -98q39 -39 39 -99v-231q0 -39 -8.5 -57.5t-34.5 -44.5l-68 -68l68 -70q27 -27 35 -45t8 -57v-309q0 -59 -39 -99l-99 -98q-45 -45 -104 -45h-295q-59 0 -104 45z" />
<glyph unicode="4" d="M96 418v57l598 891h70v-891h201v-57h-201v-418h-57v418h-611zM166 475h541v811z" />
<glyph unicode="5" d="M193 176l40 41l148 -147q12 -12 31 -13h327q18 0 31 13l127 127q10 10 10 28v367q0 18 -10 29l-127 127q-12 12 -31 12h-497v606h663v-57h-606v-492h424q59 0 104 -45l99 -98q39 -39 39 -105v-321q0 -66 -39 -105l-99 -98q-45 -45 -104 -45h-295q-59 0 -104 45z" />
<glyph unicode="6" d="M186 242v882q0 59 39 99l99 98q45 45 104 45h295q59 0 104 -45l131 -131l-40 -41l-148 147q-12 12 -31 13h-327q-18 0 -31 -13l-127 -127q-10 -10 -10 -28v-496l127 127q45 45 104 45h248q59 0 104 -45l99 -98q39 -39 39 -105v-321q0 -66 -39 -105l-99 -98 q-45 -45 -104 -45h-295q-59 0 -104 45l-99 98q-39 40 -39 99zM244 225q0 -18 10 -28l127 -127q12 -12 31 -13h327q18 0 31 13l127 127q10 10 10 28v367q0 18 -10 29l-127 127q-12 12 -31 12h-282q-18 0 -31 -12l-172 -173q-10 -10 -10 -28v-322z" />
<glyph unicode="7" d="M180 1309v57h785v-57l-590 -1309h-62l590 1309h-723z" />
<glyph unicode="8" d="M186 242v309q0 39 8.5 57.5t34.5 44.5l70 68l-70 70q-27 27 -35 45t-8 57v231q0 59 39 99l99 98q45 45 104 45h295q59 0 104 -45l99 -98q39 -39 39 -99v-231q0 -39 -8.5 -57.5t-34.5 -44.5l-70 -68l70 -70q27 -27 35 -45t8 -57v-309q0 -59 -39 -99l-99 -98 q-45 -45 -104 -45h-295q-59 0 -104 45l-99 98q-39 40 -39 99zM244 225q0 -18 10 -28l127 -127q12 -12 31 -13h327q18 0 31 13l127 127q10 10 10 28v342q0 18 -10 29l-84 84q-12 12 -31 12h-413q-18 0 -31 -12l-84 -84q-10 -10 -10 -29v-342zM244 874q0 -18 10 -28l84 -84 q12 -12 31 -12h413q18 0 31 12l84 84q10 10 10 28v267q0 18 -10 28l-127 127q-12 12 -31 13h-327q-18 0 -31 -13l-127 -127q-10 -10 -10 -28v-267z" />
<glyph unicode="9" d="M186 797v321q0 66 39 105l99 98q45 45 104 45h295q59 0 104 -45l99 -98q39 -39 39 -99v-882q0 -59 -39 -99l-99 -98q-45 -45 -104 -45h-295q-59 0 -104 45l-131 131l40 41l148 -147q12 -12 31 -13h327q18 0 31 13l127 127q10 10 10 28v496l-127 -127q-45 -45 -104 -45 h-248q-59 0 -104 45l-99 98q-39 39 -39 105zM244 774q0 -18 10 -29l127 -127q12 -12 31 -12h282q18 0 31 12l172 173q10 10 10 28v322q0 18 -10 28l-127 127q-12 12 -31 13h-327q-18 0 -31 -13l-127 -127q-10 -10 -10 -28v-367z" />
<glyph unicode=":" horiz-adv-x="575" d="M244 0v86h86v-86h-86zM244 889v86h86v-86h-86z" />
<glyph unicode=";" horiz-adv-x="575" d="M152 -268l92 94q10 10 10 29v256h61v-238q0 -61 -41 -102l-79 -80zM244 889v86h86v-86h-86z" />
<glyph unicode="&#x3c;" d="M311 487l488 488l39 -39l-449 -449l449 -448l-39 -39z" />
<glyph unicode="=" d="M88 262v55h975v-55h-975zM88 659v56h975v-56h-975z" />
<glyph unicode="&#x3e;" d="M313 39l449 448l-449 449l39 39l488 -488l-488 -487z" />
<glyph unicode="?" horiz-adv-x="935" d="M100 1198l127 127q41 41 99 41h190q57 0 98 -41l93 -92q43 -43 43 -103v-212q0 -59 -43 -103l-267 -268q-12 -12 -12 -29v-141h-57v123q0 59 41 100l270 270q12 12 12 29v248q0 16 -14 31l-121 120q-10 10 -29 11h-221q-16 0 -28 -13l-140 -139zM356 0v86h86v-86h-86z " />
<glyph unicode="@" horiz-adv-x="1605" d="M215 129v975q0 16 12 29l222 221q12 12 28 12h651q16 0 29 -12l221 -221q12 -12 13 -31v-723q0 -16 -13 -29l-86 -86q-12 -12 -28 -12h-80q-16 0 -29 12l-106 107l-107 -107q-12 -12 -29 -12h-254q-16 0 -28 12l-146 146q-12 12 -12 28v416q0 16 12 29l138 137 q12 12 28 12h262q16 0 29 -12l109 -109l28 121h58l-31 -133v-487q0 -16 12 -29l62 -61q12 -12 30 -13h29q16 0 29 13l53 53q12 12 12 28v674q0 18 -12 31l-188 188q-12 12 -29 13h-602q-16 0 -29 -13l-188 -188q-12 -12 -13 -31v-923q0 -16 13 -29l170 -170q12 -12 28 -12 h850v-58h-874q-16 0 -29 13l-203 202q-12 13 -12 29zM530 463q0 -16 13 -29l112 -112q12 -12 31 -13h203q16 0 29 13l118 118q12 12 13 29v348q0 16 -13 29l-116 117q-12 12 -29 12h-215q-18 0 -31 -12l-102 -103q-12 -12 -13 -29v-368z" />
<glyph unicode="A" horiz-adv-x="1245" d="M72 0l508 1366h82l512 -1366h-64l-158 424h-657l-158 -424h-65zM317 483h609l-303 815z" />
<glyph unicode="B" horiz-adv-x="1339" d="M244 0v1366h663q59 0 105 -45l106 -107q35 -35 35 -98v-190q0 -63 -43 -105l-139 -137l139 -139q43 -41 43 -105v-190q0 -63 -35 -98l-106 -107q-45 -45 -105 -45h-663zM303 59h621q18 0 30 13l127 127q12 12 13 28v234q0 12 -13 28l-151 152q-12 12 -29 12h-598v-594z M303 713h596q18 0 29 12l151 152q12 12 13 28l2 232q0 18 -11 28l-127 127q-14 14 -30 15h-623v-594z" />
<glyph unicode="C" d="M186 313v740q0 59 43 102l168 168q43 43 103 43h286q59 0 103 -43l162 -162l-41 -43l-174 174q-14 14 -29 15h-326q-16 0 -28 -13l-193 -192q-14 -14 -14 -29v-778q0 -16 12 -29l193 -192q14 -14 28 -15h326q16 0 29 13l176 176l41 -43l-162 -162q-43 -43 -103 -43h-286 q-59 0 -103 43l-168 168q-43 43 -43 102z" />
<glyph unicode="D" horiz-adv-x="1343" d="M244 0v1366h600q59 0 102 -43l168 -168q43 -43 43 -102v-740q0 -59 -43 -102l-168 -168q-43 -43 -102 -43h-600zM303 59h559q16 0 29 13l192 192q12 12 13 29l2 778q0 16 -13 29l-192 192q-14 14 -29 15h-561v-1248z" />
<glyph unicode="E" horiz-adv-x="1218" d="M244 0v1366h788v-59h-729v-594h729v-60h-729v-592h729v-61h-788z" />
<glyph unicode="F" horiz-adv-x="1161" d="M244 0v1366h788v-59h-729v-594h729v-60h-727v-653h-61z" />
<glyph unicode="G" horiz-adv-x="1372" d="M186 313v740q0 59 43 102l168 168q43 43 103 43h350q59 0 102 -43l207 -207l-41 -43l-219 219q-14 14 -29 15h-389q-16 0 -28 -13l-193 -192q-14 -14 -14 -29v-778q0 -16 12 -29l193 -192q14 -14 28 -15h363q16 0 28 13l220 219q14 14 14 28v334h-442v62h501v-457 l51 -258h-61l-43 227l-184 -184q-43 -43 -103 -43h-323q-59 0 -103 43l-168 168q-43 43 -43 102z" />
<glyph unicode="H" horiz-adv-x="1400" d="M244 0v1366h59v-653h793v653h61v-1366h-59v653h-793v-653h-61z" />
<glyph unicode="I" horiz-adv-x="790" d="M100 0v55h265v1256h-265v55h590v-55h-266v-1256h266v-55h-590z" />
<glyph unicode="J" horiz-adv-x="978" d="M29 205l41 43l176 -174q10 -14 28 -15h197q12 0 29 13l192 192q12 16 13 29v1012h-422v61h481v-1053q0 -59 -43 -102l-168 -168q-43 -43 -102 -43h-158q-59 0 -103 43z" />
<glyph unicode="K" horiz-adv-x="1138" d="M244 0v1366h59v-659l731 659h88l-755 -682l757 -684h-94l-725 653v-653h-61z" />
<glyph unicode="L" horiz-adv-x="1075" d="M244 0v1366h59v-1305h729v-61h-788z" />
<glyph unicode="M" horiz-adv-x="1613" d="M244 0v1366h108l455 -1307l455 1307h108v-1366h-59v1321l-461 -1321h-86l-459 1321v-1321h-61z" />
<glyph unicode="N" horiz-adv-x="1400" d="M244 0v1366h98l754 -1313v1313h61v-1366h-98l-754 1313v-1313h-61z" />
<glyph unicode="O" horiz-adv-x="1349" d="M186 313v740q0 59 43 102l168 168q43 43 103 43h350q59 0 102 -43l168 -168q43 -43 43 -102v-740q0 -59 -43 -102l-168 -168q-43 -43 -102 -43h-350q-59 0 -103 43l-168 168q-43 43 -43 102zM246 295q0 -16 12 -29l193 -192q14 -14 28 -15h389q16 0 29 13l193 192 q12 12 12 29l2 778q0 16 -12 29l-193 192q-14 14 -29 15h-389q-16 0 -28 -13l-193 -192q-14 -14 -14 -29v-778z" />
<glyph unicode="P" horiz-adv-x="1253" d="M244 0v1366h663q59 0 105 -45l106 -107q35 -35 35 -98v-215q0 -63 -35 -98l-106 -107q-45 -45 -105 -45h-602v-651h-61zM303 711h621q18 0 30 12l127 127q10 10 11 29l2 258q0 18 -11 28l-127 127q-14 14 -30 15h-623v-596z" />
<glyph unicode="Q" horiz-adv-x="1349" d="M186 313v740q0 59 43 102l168 168q43 43 103 43h350q59 0 102 -43l168 -168q43 -43 43 -102v-740q0 -59 -43 -102l-168 -168q-43 -43 -102 -43h-80l111 -260l-54 -25l-120 285h-207q-59 0 -103 43l-168 168q-43 43 -43 102zM246 295q0 -16 12 -29l193 -192q14 -14 28 -15 h201l-78 185l53 24l88 -209h125q16 0 29 13l193 192q12 12 12 29l2 778q0 16 -12 29l-193 192q-14 14 -29 15h-389q-16 0 -28 -13l-193 -192q-14 -14 -14 -29v-778z" />
<glyph unicode="R" horiz-adv-x="1370" d="M244 0v1366h663q59 0 105 -45l106 -107q35 -35 35 -98v-215q0 -63 -35 -98l-106 -107q-45 -45 -105 -45h-80l414 -651h-74l-399 633q-12 18 -35 18h-428v-651h-61zM303 711h621q18 0 30 12l127 127q10 10 11 31l2 256q0 18 -11 28l-127 127q-14 14 -30 15h-623v-596z" />
<glyph unicode="S" horiz-adv-x="1292" d="M158 205l41 43l176 -174q10 -14 28 -15h439q12 0 28 13l193 192q12 16 12 29v239q0 14 -11 26.5t-26 14.5l-753 150q-74 16 -100.5 45t-26.5 98v187q0 59 43 102l168 168q43 43 102 43h399q59 0 103 -43l162 -162l-41 -43l-174 174q-14 14 -29 15h-438q-16 0 -29 -13 l-193 -192q-12 -12 -12 -29v-239q0 -37 37 -41l752 -150q72 -16 99.5 -45t27.5 -98v-187q0 -59 -43 -102l-168 -168q-43 -43 -103 -43h-399q-59 0 -103 43z" />
<glyph unicode="T" horiz-adv-x="1056" d="M72 1305v61h913v-59h-426v-1307h-61v1305h-426z" />
<glyph unicode="U" horiz-adv-x="1343" d="M215 313v1053h59v-1071q0 -16 13 -29l192 -192q14 -14 29 -15h326q16 0 28 13l193 192q12 12 12 29v1073h61v-1053q0 -59 -43 -102l-167 -168q-43 -43 -103 -43h-287q-59 0 -102 43l-168 168q-43 43 -43 102z" />
<glyph unicode="V" d="M43 1366h63l465 -1305l476 1305h61l-494 -1366h-82z" />
<glyph unicode="W" horiz-adv-x="1572" d="M100 1366h64l285 -1331l284 1331h107l284 -1331l285 1331h64l-295 -1366h-107l-285 1319l-284 -1319h-107z" />
<glyph unicode="X" horiz-adv-x="1128" d="M100 0l428 682l-428 684h70l397 -635l389 635h72l-426 -684l426 -682h-70l-397 633l-391 -633h-70z" />
<glyph unicode="Y" horiz-adv-x="1062" d="M43 1366h70l417 -694l418 694h72l-457 -762v-604h-61v604z" />
<glyph unicode="Z" horiz-adv-x="1226" d="M158 0v59l839 1246h-839v61h911v-59l-840 -1246h840v-61h-911z" />
<glyph unicode="[" horiz-adv-x="708" d="M244 -389v2040h364v-58h-307v-1925h307v-57h-364z" />
<glyph unicode="\" horiz-adv-x="1060" d="M82 1546h45l852 -1718h-45z" />
<glyph unicode="]" horiz-adv-x="708" d="M100 -332h308v1925h-308v58h365v-2040h-365v57z" />
<glyph unicode="^" d="M88 885l487 487l488 -487l-39 -39l-449 448l-448 -448z" />
<glyph unicode="_" horiz-adv-x="1024" d="M0 -537h1024v-55h-1024v55z" />
<glyph unicode="`" horiz-adv-x="849" d="M227 1366h82l314 -313h-82z" />
<glyph unicode="a" horiz-adv-x="1087" d="M100 236v139q0 66 33 98l98 98q39 39 99 39h497v152q0 18 -10 29l-115 114q-12 12 -28 13h-357q-16 0 -28 -13l-111 -110l-39 39l99 102q37 39 98 39h319q59 0 99 -39l98 -98q33 -33 33 -99v-598q0 -16 12 -28l72 -72l-41 -41l-101 100l-59 -59q-41 -41 -100 -41h-338 q-59 0 -99 39l-98 98q-33 33 -33 99zM158 213q0 -18 10 -29l115 -114q12 -12 28 -13h375q16 0 29 13l102 102q10 10 10 29v352h-516q-16 0 -28 -12l-115 -115q-10 -10 -10 -29v-184z" />
<glyph unicode="b" horiz-adv-x="1099" d="M154 0l32 162v1204h58v-553l123 123q39 39 102 39h272q59 0 99 -39l98 -98q33 -33 33 -99v-503q0 -66 -33 -99l-98 -98q-39 -39 -99 -39h-276q-57 0 -98 39l-125 123l-31 -162h-57zM244 262q0 -18 10 -29l164 -163q12 -12 28 -13h314q16 0 28 13l115 114q10 10 10 29v549 q0 18 -10 29l-115 114q-12 12 -28 13h-314q-16 0 -28 -13l-164 -164q-10 -10 -10 -28v-451z" />
<glyph unicode="c" horiz-adv-x="974" d="M129 236v503q0 66 33 99l98 98q39 39 98 39h326q59 0 98 -39l121 -121l-41 -41l-131 131q-12 12 -29 13h-362q-16 0 -29 -13l-114 -114q-10 -10 -11 -29v-549q0 -18 11 -29l114 -114q12 -12 29 -13h362q16 0 29 13l131 131l41 -41l-121 -121q-39 -39 -98 -39h-326 q-59 0 -98 39l-98 98q-33 33 -33 99z" />
<glyph unicode="d" horiz-adv-x="1099" d="M129 236v503q0 66 33 99l98 98q39 39 98 39h273q63 0 102 -39l123 -123v553h57v-1204l33 -162h-57l-31 162l-125 -123q-41 -39 -98 -39h-277q-59 0 -98 39l-98 98q-33 33 -33 99zM186 213q0 -18 11 -29l114 -114q12 -12 29 -13h313q16 0 29 13l164 163q10 10 10 29v451 q0 18 -10 28l-164 164q-12 12 -29 13h-313q-16 0 -29 -13l-114 -114q-10 -10 -11 -29v-549z" />
<glyph unicode="e" horiz-adv-x="1042" d="M129 236v503q0 66 33 99l98 98q39 39 98 39h326q59 0 98 -39l99 -98q33 -33 32 -99v-243h-727v-283q0 -18 11 -29l114 -114q12 -12 29 -13h362q16 0 29 13l131 131l41 -41l-121 -121q-39 -39 -98 -39h-326q-59 0 -98 39l-98 98q-33 33 -33 99zM186 553h670v209 q0 18 -10 29l-115 114q-12 12 -29 13h-362q-16 0 -29 -13l-114 -114q-10 -10 -11 -29v-209z" />
<glyph unicode="f" horiz-adv-x="606" d="M57 918v57h129v155q0 66 33 99l98 98q39 39 99 39h133v-57h-152q-16 0 -28 -13l-115 -114q-10 -10 -10 -29v-178h305v-57h-305v-918h-58v918h-129z" />
<glyph unicode="g" horiz-adv-x="1099" d="M129 -221l41 41l141 -142q12 -12 29 -12h362q16 0 29 12l115 115q10 10 10 29v340l-123 -123q-39 -39 -102 -39h-273q-59 0 -98 39l-98 98q-33 33 -33 99v503q0 66 33 99l98 98q39 39 98 39h277q57 0 98 -39l125 -123l31 162h57l-33 -162v-969q0 -66 -32 -98l-99 -98 q-39 -39 -98 -39h-326q-59 0 -98 39zM186 213q0 -18 11 -29l114 -114q12 -12 29 -13h313q16 0 29 13l164 163q10 10 10 29v451q0 18 -10 28l-164 164q-12 12 -29 13h-313q-16 0 -29 -13l-114 -114q-10 -10 -11 -29v-549z" />
<glyph unicode="h" horiz-adv-x="1103" d="M186 0v1364h58v-543l112 115q37 39 99 39h233q59 0 98 -39l99 -98q33 -33 33 -99v-739h-58v762q0 18 -10 29l-115 114q-12 12 -28 13h-271q-16 0 -28 -13l-152 -151q-12 -12 -12 -31v-723h-58z" />
<glyph unicode="i" horiz-adv-x="444" d="M6 918v57h252v-975h-57v918h-195zM184 1280v86h86v-86h-86z" />
<glyph unicode="j" horiz-adv-x="458" d="M-90 -332h151q16 0 29 13l115 114q10 10 10 29v1094h-195v57h252v-1129q0 -66 -32 -98l-99 -98q-39 -39 -98 -39h-133v57zM199 1280v86h86v-86h-86z" />
<glyph unicode="k" horiz-adv-x="890" d="M186 0v1366h58v-807l413 416h76l-420 -420l564 -555h-74l-559 551v-551h-58z" />
<glyph unicode="l" horiz-adv-x="430" d="M-8 1309v57h252v-1366h-58v1309h-194z" />
<glyph unicode="m" horiz-adv-x="1548" d="M143 975h58l35 -162l120 123q39 39 99 39h118q59 0 99 -39l123 -123l120 123q39 39 99 39h119q59 0 98 -39l98 -98q33 -33 33 -99v-739h-57v762q0 18 -11 29l-114 114q-12 12 -29 13h-156q-16 0 -28 -13l-152 -151q-12 -12 -12 -31v-723h-58v762q0 18 -10 29l-114 114 q-12 12 -29 13h-156q-16 0 -28 -13l-152 -151q-12 -12 -12 -31v-723h-58v791z" />
<glyph unicode="n" horiz-adv-x="1103" d="M143 975h58l35 -162l120 123q37 39 99 39h233q59 0 98 -39l99 -98q33 -33 33 -99v-739h-58v762q0 18 -10 29l-115 114q-12 12 -28 13h-271q-16 0 -28 -13l-152 -151q-12 -12 -12 -31v-723h-58v791z" />
<glyph unicode="o" horiz-adv-x="1042" d="M129 236v503q0 66 33 99l98 98q39 39 98 39h326q59 0 98 -39l99 -98q33 -33 32 -99v-503q0 -66 -32 -99l-99 -98q-39 -39 -98 -39h-326q-59 0 -98 39l-98 98q-33 33 -33 99zM186 213q0 -18 11 -29l114 -114q12 -12 29 -13h362q16 0 29 13l115 114q10 10 10 29v549 q0 18 -10 29l-115 114q-12 12 -29 13h-362q-16 0 -29 -13l-114 -114q-10 -10 -11 -29v-549z" />
<glyph unicode="p" horiz-adv-x="1099" d="M154 975h57l31 -162l125 123q41 39 98 39h276q59 0 99 -39l98 -98q33 -33 33 -99v-503q0 -66 -33 -99l-98 -98q-39 -39 -99 -39h-272q-63 0 -102 39l-123 123v-553h-58v1204zM244 262q0 -18 10 -29l164 -163q12 -12 28 -13h314q16 0 28 13l115 114q10 10 10 29v549 q0 18 -10 29l-115 114q-12 12 -28 13h-314q-16 0 -28 -13l-164 -164q-10 -10 -10 -28v-451z" />
<glyph unicode="q" horiz-adv-x="1099" d="M129 236v503q0 66 33 99l98 98q39 39 98 39h277q57 0 98 -39l125 -123l31 162h57l-33 -162v-1204h-57v553l-123 -123q-39 -39 -102 -39h-273q-59 0 -98 39l-98 98q-33 33 -33 99zM186 213q0 -18 11 -29l114 -114q12 -12 29 -13h313q16 0 29 13l164 163q10 10 10 29v451 q0 18 -10 28l-164 164q-12 12 -29 13h-313q-16 0 -29 -13l-114 -114q-10 -10 -11 -29v-549z" />
<glyph unicode="r" horiz-adv-x="960" d="M143 975h58l35 -162l120 123q37 39 99 39h176q59 0 98 -39l98 -98q33 -33 33 -99v-149h-57v172q0 18 -10 29l-115 114q-12 12 -29 13h-213q-16 0 -28 -13l-152 -151q-12 -12 -12 -31v-723h-58v791z" />
<glyph unicode="s" horiz-adv-x="968" d="M129 160l41 41l131 -131q12 -12 29 -13h299q16 0 28 13l115 114q10 10 10 29v162q0 33 -37 41l-489 94q-45 8 -67.5 16.5t-41 31t-18.5 58.5v123q0 66 33 99l98 98q39 39 98 39h263q59 0 98 -39l121 -121l-41 -41l-131 131q-12 12 -29 13h-299q-16 0 -29 -13l-114 -114 q-10 -10 -11 -29v-148q0 -33 37 -41l490 -94q45 -8 67.5 -16t41 -30.5t18.5 -59.5v-137q0 -66 -33 -99l-98 -98q-39 -39 -99 -39h-262q-59 0 -98 39z" />
<glyph unicode="t" horiz-adv-x="634" d="M74 918v57h127v391h57v-391h305v-57h-305v-705q0 -18 10 -29l115 -114q12 -12 29 -13h151v-57h-133q-59 0 -98 39l-99 98q-33 33 -32 99v682h-127z" />
<glyph unicode="u" horiz-adv-x="1103" d="M186 236v739h58v-762q0 -18 10 -29l115 -114q12 -12 28 -13h271q16 0 28 13l152 151q12 12 12 31v723h58v-791l43 -184h-58l-35 162l-120 -123q-37 -39 -99 -39h-233q-59 0 -99 39l-98 98q-33 33 -33 99z" />
<glyph unicode="v" horiz-adv-x="915" d="M72 975h59l328 -918l325 918h60l-346 -975h-80z" />
<glyph unicode="w" horiz-adv-x="1472" d="M100 975h60l266 -918l264 918h92l267 -918l264 918h59l-285 -975h-79l-271 930l-272 -930h-80z" />
<glyph unicode="x" horiz-adv-x="821" d="M29 0l348 487l-348 488h69l314 -440l315 440h66l-349 -486l349 -489h-70l-313 440l-316 -440h-65z" />
<glyph unicode="y" horiz-adv-x="858" d="M29 975h59l328 -893l325 893h60l-502 -1364h-57l143 391z" />
<glyph unicode="z" horiz-adv-x="868" d="M72 0v57l653 861h-653v57h725v-57l-654 -861h654v-57h-725z" />
<glyph unicode="{" horiz-adv-x="747" d="M186 629q0 45 54 98l112 113q12 12 13 28v453q0 59 43 102l227 230l41 -41l-244 -246q-12 -12 -12 -29v-452q0 -59 -43 -103l-113 -112q-41 -41 0 -82l113 -113q43 -43 43 -102v-455q0 -16 12 -29l244 -243l-41 -41l-227 227q-43 43 -43 102v455q0 16 -13 29l-112 112 q-54 54 -54 99z" />
<glyph unicode="|" horiz-adv-x="575" d="M258 -391v1757h57v-1757h-57z" />
<glyph unicode="}" horiz-adv-x="747" d="M72 -354l243 243q12 12 13 29v455q0 59 43 102l112 113q41 41 0 82l-112 112q-43 43 -43 103v452q0 16 -13 29l-243 246l41 41l227 -230q43 -43 43 -102v-453q0 -16 12 -28l113 -113q53 -53 53 -98t-53 -99l-113 -112q-12 -12 -12 -29v-455q0 -59 -43 -102l-227 -227z " />
<glyph unicode="~" d="M80 356l278 279q25 25 55.5 24.5t57.5 -26.5l246 -246q20 -18 43 0l272 272l39 -38l-278 -279q-25 -25 -56 -25q-27 0 -57 27l-246 246q-20 20 -43 0l-272 -273z" />
<glyph unicode="&#xa1;" horiz-adv-x="575" d="M246 889v86h86v-86h-86zM260 -391v977h57v-977h-57z" />
<glyph unicode="&#xa2;" d="M188 236v503q0 66 33 99l98 98q39 39 99 39h135v203h55v-203h135q59 0 99 -39l121 -121l-41 -41l-131 131q-12 12 -29 13h-154v-861h154q16 0 29 13l131 131l41 -41l-121 -121q-39 -39 -99 -39h-135v-195h-55v195h-135q-59 0 -99 39l-98 98q-33 33 -33 99zM246 213 q0 -18 10 -29l115 -114q12 -12 28 -13h154v861h-154q-16 0 -28 -13l-115 -114q-10 -10 -10 -29v-549z" />
<glyph unicode="&#xa3;" d="M158 0v57h116v596h-116v58h116v415q0 59 41 101l97 96q43 43 102 43h330q59 0 102 -43l127 -127l-41 -41l-141 141q-12 12 -29 13h-364q-18 0 -31 -13l-125 -125q-10 -10 -10 -28v-432h631v-58h-631v-596h743v-57h-917z" />
<glyph unicode="&#xa4;" d="M125 543v55h115v172h-115v55h115v228q0 59 43 102l168 168q43 43 102 43h223q59 0 103 -43l159 -158l-43 -43l-174 174q-12 12 -28 13h-263q-16 0 -28 -13l-193 -192q-12 -12 -12 -29v-250h365v-55h-365v-172h365v-55h-365v-252q0 -16 12 -29l193 -192q12 -12 28 -13h263 q16 0 28 13l174 174l43 -43l-159 -158q-43 -43 -103 -43h-223q-59 0 -102 43l-168 168q-43 43 -43 102v230h-115z" />
<glyph unicode="&#xa5;" d="M104 1366h70l404 -698l403 698h68l-314 -541h199v-55h-232l-100 -172h332v-55h-328v-543h-57v543h-328v55h332l-100 172h-232v55h199z" />
<glyph unicode="&#xa6;" horiz-adv-x="575" d="M258 195h57v-586h-57v586zM258 780v586h57v-586h-57z" />
<glyph unicode="&#xa7;" d="M252 -27l41 41l139 -139q12 -12 29 -12h221q18 0 29 10l120 121q14 14 15 31v237q0 20 -12 29l-582 348l29 45l577 -344q29 -16 36 -38.5t7 -63.5v-197q0 -59 -43 -102l-92 -93q-41 -41 -98 -41h-191q-57 0 -98 41zM252 934v196q0 59 43 103l92 92q41 41 98 41h191 q57 0 98 -41l127 -127l-41 -41l-139 139q-12 12 -29 13h-221q-18 0 -29 -11l-120 -120q-14 -14 -15 -31v-238q0 -20 12 -28l582 -349l-29 -45l-577 344q-29 16 -36 39t-7 64z" />
<glyph unicode="&#xa8;" horiz-adv-x="849" d="M164 1280v86h86v-86h-86zM600 1280v86h86v-86h-86z" />
<glyph unicode="&#xa9;" horiz-adv-x="1662" d="M100 682q0 303 214 517t517.5 214t517.5 -214t214 -517t-214 -517t-517.5 -214t-517.5 214t-214 517zM158 682q0 -281 197.5 -479.5t476 -198.5t476 198.5t197.5 479.5t-197.5 479.5t-476 198.5t-476 -198.5t-197.5 -479.5zM420 449v469q0 59 43 102l131 131 q43 43 102 43h260q59 0 103 -43l160 -158l-43 -43l-175 174q-12 12 -28 13h-299q-16 0 -29 -13l-156 -155q-12 -12 -12 -29v-514q0 -16 12 -29l156 -155q12 -12 29 -13h299q16 0 28 13l175 174l43 -43l-160 -158q-43 -43 -103 -43h-260q-59 0 -102 43l-131 131 q-43 44 -43 103z" />
<glyph unicode="&#xaa;" horiz-adv-x="720" d="M29 848v102q0 43 24 68l70 69q27 27 72 27h360v103q0 12 -8 20l-70 70q-8 8 -20 8h-277q-14 0 -22 -8l-72 -72l-35 33l72 71q27 27 72 27h245q45 0 72 -27l70 -69q25 -25 24 -68v-420q0 -10 10 -20l46 -45l-33 -33l-72 72l-45 -45q-27 -27 -72 -27h-245q-45 0 -72 27 l-70 69q-24 25 -24 68zM80 834q0 -12 8 -21l70 -70q8 -8 22 -8h277q12 0 20 8l70 70q8 8 8 21v229h-375q-14 0 -22 -8l-70 -70q-8 -8 -8 -20v-131z" />
<glyph unicode="&#xab;" horiz-adv-x="1134" d="M186 487q0 45 54 99l280 280l39 -39l-297 -299q-41 -41 0 -82l291 -292l-39 -39l-274 274q-54 53 -54 98zM575 487q0 45 54 99l280 280l39 -39l-297 -299q-41 -41 0 -82l291 -292l-39 -39l-274 274q-54 53 -54 98z" />
<glyph unicode="&#xac;" d="M88 659v56h975v-715h-55v659h-920z" />
<glyph unicode="&#xad;" horiz-adv-x="983" d="M205 459v57h573v-57h-573z" />
<glyph unicode="&#xae;" horiz-adv-x="1085" d="M72 942.5q0 194.5 138 332.5t332.5 138t333 -138t138.5 -332.5t-138.5 -333t-333 -138.5t-332.5 138.5t-138 333zM123 942q0 -174 123 -299t297 -125t297 125t123 299t-123 299t-297 125t-297 -125t-123 -299zM375 635v616h270q39 0 68 -28l39 -41q23 -20 22 -64v-61 q0 -43 -22 -64l-39 -41q-29 -29 -68 -28h-80l215 -289h-59l-205 276q-8 12 -22 13h-68v-289h-51zM426 975h229q12 0 19 8l43 43q6 4 6 18v86q0 14 -6 19l-43 43q-6 8 -19 8h-229v-225z" />
<glyph unicode="&#xaf;" horiz-adv-x="849" d="M111 1202v58h630v-58h-630z" />
<glyph unicode="&#xb0;" d="M299 940v287q0 78 30.5 108.5t108.5 30.5h275q78 0 108.5 -30.5t30.5 -108.5v-287q0 -78 -30.5 -108.5t-108.5 -30.5h-275q-78 0 -108.5 30.5t-30.5 108.5zM356 915q0 -27 16.5 -42t41.5 -15h323q57 0 58 57v336q0 57 -58 58h-323q-25 0 -41.5 -15.5t-16.5 -42.5v-336z " />
<glyph unicode="&#xb1;" d="M88 0h975v-57h-975v57zM88 516v57h459v402h57v-402h459v-57h-459v-401h-57v401h-459z" />
<glyph unicode="&#xb2;" horiz-adv-x="618" d="M57 547v231q0 53 52 78l366 182q16 8 17 23v162q0 12 -7 16l-63 64q-8 8 -21 8h-200q-10 0 -19 -8l-82 -82l-39 39l80 79q27 27 66 27h190q39 0 66 -27l59 -59q25 -25 25 -59v-156q0 -31 -11.5 -46t-41.5 -32l-365 -182q-16 -8 -16 -23v-180h434v-55h-490z" />
<glyph unicode="&#xb3;" horiz-adv-x="616" d="M57 657l39 39l86 -86q8 -8 19 -8h198q12 0 21 8l63 64q6 6 6 16v187q0 10 -6 16l-51 51q-10 6 -20 6h-211v56h211q8 0 20 8l51 51q6 6 6 16v140q0 10 -6 16l-65 66q-8 8 -21 8h-196q-10 0 -19 -8l-86 -86l-39 38l84 84q25 27 66 27h188q35 0 66 -27l59 -59q25 -25 25 -59 v-140q0 -33 -27 -59l-43 -43l41 -41q29 -29 29 -61v-185q0 -35 -25 -59l-59 -60q-27 -27 -66 -26h-188q-41 0 -66 26z" />
<glyph unicode="&#xb4;" horiz-adv-x="849" d="M227 1053l314 313h82l-314 -313h-82z" />
<glyph unicode="&#xb5;" d="M209 -391v1366h57v-733q0 -18 10 -29l144 -143q12 -12 29 -13h241q16 0 29 13l151 151q12 12 13 31v723h57v-791l43 -184h-57l-35 162l-121 -123q-39 -39 -98 -39h-205q-59 0 -98 39l-103 102v-532h-57z" />
<glyph unicode="&#xb6;" horiz-adv-x="1155" d="M115 901v215q0 63 35 98l106 107q45 45 104 45h537v-1366h-57v1309h-172v-1309h-58v651h-250q-59 0 -104 45l-106 107q-35 35 -35 98zM172 881q0 -18 10 -29l131 -131q12 -12 31 -12h266v600h-266q-18 0 -31 -13l-131 -131q-10 -10 -10 -28v-256z" />
<glyph unicode="&#xb7;" horiz-adv-x="575" d="M244 641v86h86v-86h-86z" />
<glyph unicode="&#xb8;" horiz-adv-x="849" d="M303 -16l41 41l205 -205l-205 -205l-41 41l164 164z" />
<glyph unicode="&#xb9;" horiz-adv-x="616" d="M92 547v55h189v692l-152 -143l-37 37l189 178h55v-764h188v-55h-432z" />
<glyph unicode="&#xba;" horiz-adv-x="720" d="M72 848v354q0 43 24 68l70 69q27 27 72 27h245q45 0 72 -27l70 -69q25 -25 24 -68v-354q0 -43 -24 -68l-70 -69q-27 -27 -72 -27h-245q-45 0 -72 27l-70 69q-24 25 -24 68zM123 834q0 -12 8 -21l70 -70q8 -8 22 -8h277q12 0 20 8l70 70q8 8 8 21v383q0 12 -8 20l-70 70 q-8 8 -20 8h-277q-14 0 -22 -8l-70 -70q-8 -8 -8 -20v-383z" />
<glyph unicode="&#xbb;" horiz-adv-x="1134" d="M186 827l39 39l281 -280q53 -53 53 -98.5t-53 -98.5l-275 -274l-38 39l290 292q41 41 0 82zM575 827l39 39l281 -280q53 -53 53 -98.5t-53 -98.5l-274 -274l-39 39l290 292q41 41 0 82z" />
<glyph unicode="&#xbc;" horiz-adv-x="1529" d="M92 547v55h189v692l-152 -143l-37 37l189 178h55v-764h188v-55h-432zM319 0l742 1376h59l-743 -1376h-58zM840 240v55l364 524h56v-524h126v-55h-126v-240h-56v240h-364zM903 295h301v432z" />
<glyph unicode="&#xbd;" horiz-adv-x="1529" d="M92 547v55h189v692l-152 -143l-37 37l189 178h55v-764h188v-55h-432zM319 0l742 1376h59l-743 -1376h-58zM981 0v231q0 31 10 47.5t41 30.5l367 183q16 8 16 22v162q0 12 -6 16l-63 64q-8 8 -21 8h-201q-10 0 -18 -8l-82 -82l-39 39l80 80q27 27 65 26h191q39 0 65 -26 l60 -60q25 -25 24 -59v-156q0 -31 -11 -46t-42 -32l-364 -182q-16 -8 -17 -22v-181h434v-55h-489z" />
<glyph unicode="&#xbe;" horiz-adv-x="1529" d="M57 657l39 39l86 -86q8 -8 19 -8h198q12 0 21 8l63 64q6 6 6 16v187q0 10 -6 16l-51 51q-10 6 -20 6h-211v56h211q8 0 20 8l51 51q6 6 6 16v140q0 10 -6 16l-65 66q-8 8 -21 8h-196q-10 0 -19 -8l-86 -86l-39 38l84 84q25 27 66 27h188q35 0 66 -27l59 -59q25 -25 25 -59 v-140q0 -33 -27 -59l-43 -43l41 -41q29 -29 29 -61v-185q0 -35 -25 -59l-59 -60q-27 -27 -66 -26h-188q-41 0 -66 26zM391 0l742 1376h59l-743 -1376h-58zM840 240v55l364 524h56v-524h126v-55h-126v-240h-56v240h-364zM903 295h301v432z" />
<glyph unicode="&#xbf;" horiz-adv-x="935" d="M186 57q0 59 43 103l267 268q12 12 12 29v141h57v-123q0 -59 -41 -100l-270 -271q-12 -12 -12 -28v-248q0 -16 14 -31l121 -121q10 -10 29 -10h221q16 0 28 12l140 140l41 -41l-127 -127q-41 -41 -99 -41h-190q-57 0 -98 41l-93 92q-43 43 -43 102v213zM494 889v86h86 v-86h-86z" />
<glyph unicode="&#xc0;" horiz-adv-x="1245" d="M72 0l508 1366h82l512 -1366h-64l-158 424h-657l-158 -424h-65zM279 1786h81l314 -313h-82zM317 483h609l-303 815z" />
<glyph unicode="&#xc1;" horiz-adv-x="1245" d="M72 0l508 1366h82l512 -1366h-64l-158 424h-657l-158 -424h-65zM317 483h609l-303 815zM567 1473l314 313h82l-314 -313h-82z" />
<glyph unicode="&#xc2;" horiz-adv-x="1245" d="M72 0l508 1366h82l512 -1366h-64l-158 424h-657l-158 -424h-65zM307 1516l271 270h90l270 -270h-82l-233 233l-234 -233h-82zM317 483h609l-303 815z" />
<glyph unicode="&#xc3;" horiz-adv-x="1245" d="M72 0l508 1366h82l512 -1366h-64l-158 424h-657l-158 -424h-65zM240 1622l163 102q31 20 76 21q41 0 82 -27l176 -110q20 -14 45 0l193 121l31 -48l-168 -106q-37 -25 -76 -25q-41 0 -82 27l-178 111q-23 16 -47 0l-185 -115zM317 483h609l-303 815z" />
<glyph unicode="&#xc4;" horiz-adv-x="1245" d="M72 0l508 1366h82l512 -1366h-64l-158 424h-657l-158 -424h-65zM317 483h609l-303 815zM360 1642v87h86v-87h-86zM797 1642v87h86v-87h-86z" />
<glyph unicode="&#xc5;" horiz-adv-x="1245" d="M72 0l469 1264q-57 0 -97.5 38.5t-40.5 96.5v172q0 57 39 96t97 39h163q57 0 97.5 -39t40.5 -96v-172q0 -57 -40 -96t-100 -39l474 -1264h-64l-158 424h-657l-158 -424h-65zM317 483h611l-287 770q-8 18 -18.5 18.5t-18.5 -18.5zM455 1411q0 -43 26.5 -69.5t69.5 -26.5 h141q43 0 69.5 26.5t26.5 69.5v148q0 43 -26.5 69.5t-69.5 26.5h-141q-43 0 -69.5 -26.5t-26.5 -69.5v-148z" />
<glyph unicode="&#xc6;" horiz-adv-x="1703" d="M215 0v1059q0 59 45 104l162 162q41 41 98 41h998v-59h-603v-594h603v-60h-603v-592h603v-61h-662v653h-580v-653h-61zM274 713h582v594h-352q-16 0 -29 -13l-186 -186q-14 -14 -15 -29v-366z" />
<glyph unicode="&#xc7;" d="M186 313v740q0 59 43 102l168 168q43 43 103 43h286q59 0 103 -43l162 -162l-41 -43l-174 174q-14 14 -29 15h-326q-16 0 -28 -13l-193 -192q-14 -14 -14 -29v-778q0 -16 12 -29l193 -192q14 -14 28 -15h326q16 0 29 13l176 176l41 -43l-162 -162q-43 -43 -103 -43h-129 l181 -180l-205 -205l-41 41l164 164l-181 180h-75q-59 0 -103 43l-168 168q-43 43 -43 102z" />
<glyph unicode="&#xc8;" horiz-adv-x="1218" d="M244 0v1366h788v-59h-729v-594h729v-60h-729v-592h729v-61h-788zM440 1786h82l314 -313h-82z" />
<glyph unicode="&#xc9;" horiz-adv-x="1218" d="M244 0v1366h788v-59h-729v-594h729v-60h-729v-592h729v-61h-788zM467 1473l313 313h82l-313 -313h-82z" />
<glyph unicode="&#xca;" horiz-adv-x="1218" d="M244 0v1366h788v-59h-729v-594h729v-60h-729v-592h729v-61h-788zM322 1516l270 270h90l270 -270h-82l-233 233l-234 -233h-81z" />
<glyph unicode="&#xcb;" horiz-adv-x="1218" d="M244 0v1366h788v-59h-729v-594h729v-60h-729v-592h729v-61h-788zM377 1642v87h86v-87h-86zM813 1642v87h86v-87h-86z" />
<glyph unicode="&#xcc;" horiz-adv-x="790" d="M100 0v55h265v1256h-265v55h590v-55h-266v-1256h266v-55h-590zM139 1786h82l314 -313h-82z" />
<glyph unicode="&#xcd;" horiz-adv-x="790" d="M100 0v55h265v1256h-265v55h590v-55h-266v-1256h266v-55h-590zM254 1473l313 313h82l-313 -313h-82z" />
<glyph unicode="&#xce;" horiz-adv-x="790" d="M80 1516l270 270h90l271 -270h-82l-234 233l-233 -233h-82zM100 0v55h265v1256h-265v55h590v-55h-266v-1256h266v-55h-590z" />
<glyph unicode="&#xcf;" horiz-adv-x="790" d="M100 0v55h265v1256h-265v55h590v-55h-266v-1256h266v-55h-590zM133 1642v87h86v-87h-86zM569 1642v87h86v-87h-86z" />
<glyph unicode="&#xd0;" horiz-adv-x="1343" d="M53 651v64h191v651h600q59 0 102 -43l168 -168q43 -43 43 -102v-740q0 -59 -43 -102l-168 -168q-43 -43 -102 -43h-600v651h-191zM303 59h559q16 0 29 13l192 192q12 12 13 29l2 778q0 16 -13 29l-192 192q-14 14 -29 15h-561v-592h397v-64h-397v-592z" />
<glyph unicode="&#xd1;" horiz-adv-x="1400" d="M244 0v1366h98l754 -1313v1313h61v-1366h-98l-754 1313v-1313h-61zM317 1622l164 102q31 20 76 21q41 0 82 -27l176 -110q20 -14 45 0l193 121l30 -48l-168 -106q-37 -25 -75 -25q-41 0 -82 27l-178 111q-23 16 -48 0l-184 -115z" />
<glyph unicode="&#xd2;" horiz-adv-x="1349" d="M186 313v740q0 59 43 102l168 168q43 43 103 43h350q59 0 102 -43l168 -168q43 -43 43 -102v-740q0 -59 -43 -102l-168 -168q-43 -43 -102 -43h-350q-59 0 -103 43l-168 168q-43 43 -43 102zM246 295q0 -16 12 -29l193 -192q14 -14 28 -15h389q16 0 29 13l193 192 q12 12 12 29l2 778q0 16 -12 29l-193 192q-14 14 -29 15h-389q-16 0 -28 -13l-193 -192q-14 -14 -14 -29v-778zM354 1786h82l314 -313h-82z" />
<glyph unicode="&#xd3;" horiz-adv-x="1349" d="M186 313v740q0 59 43 102l168 168q43 43 103 43h350q59 0 102 -43l168 -168q43 -43 43 -102v-740q0 -59 -43 -102l-168 -168q-43 -43 -102 -43h-350q-59 0 -103 43l-168 168q-43 43 -43 102zM246 295q0 -16 12 -29l193 -192q14 -14 28 -15h389q16 0 29 13l193 192 q12 12 12 29l2 778q0 16 -12 29l-193 192q-14 14 -29 15h-389q-16 0 -28 -13l-193 -192q-14 -14 -14 -29v-778zM600 1473l313 313h82l-313 -313h-82z" />
<glyph unicode="&#xd4;" horiz-adv-x="1349" d="M186 313v740q0 59 43 102l168 168q43 43 103 43h350q59 0 102 -43l168 -168q43 -43 43 -102v-740q0 -59 -43 -102l-168 -168q-43 -43 -102 -43h-350q-59 0 -103 43l-168 168q-43 43 -43 102zM246 295q0 -16 12 -29l193 -192q14 -14 28 -15h389q16 0 29 13l193 192 q12 12 12 29l2 778q0 16 -12 29l-193 192q-14 14 -29 15h-389q-16 0 -28 -13l-193 -192q-14 -14 -14 -29v-778zM358 1516l271 270h90l270 -270h-82l-233 233l-234 -233h-82z" />
<glyph unicode="&#xd5;" horiz-adv-x="1349" d="M186 313v740q0 59 43 102l168 168q43 43 103 43h350q59 0 102 -43l168 -168q43 -43 43 -102v-740q0 -59 -43 -102l-168 -168q-43 -43 -102 -43h-350q-59 0 -103 43l-168 168q-43 43 -43 102zM246 295q0 -16 12 -29l193 -192q14 -14 28 -15h389q16 0 29 13l193 192 q12 12 12 29l2 778q0 16 -12 29l-193 192q-14 14 -29 15h-389q-16 0 -28 -13l-193 -192q-14 -14 -14 -29v-778zM291 1622l164 102q31 20 75 21q43 0 82 -27l176 -110q20 -14 46 0l192 121l31 -48l-168 -106q-37 -25 -76 -25q-43 0 -82 27l-178 111q-25 16 -47 0l-184 -115z " />
<glyph unicode="&#xd6;" horiz-adv-x="1349" d="M186 313v740q0 59 43 102l168 168q43 43 103 43h350q59 0 102 -43l168 -168q43 -43 43 -102v-740q0 -59 -43 -102l-168 -168q-43 -43 -102 -43h-350q-59 0 -103 43l-168 168q-43 43 -43 102zM246 295q0 -16 12 -29l193 -192q14 -14 28 -15h389q16 0 29 13l193 192 q12 12 12 29l2 778q0 16 -12 29l-193 192q-14 14 -29 15h-389q-16 0 -28 -13l-193 -192q-14 -14 -14 -29v-778zM414 1642v87h86v-87h-86zM850 1642v87h86v-87h-86z" />
<glyph unicode="&#xd7;" d="M131 78l404 407l-404 400l41 41l403 -400l404 400l41 -41l-404 -400l404 -407l-41 -41l-404 407l-403 -407z" />
<glyph unicode="&#xd8;" horiz-adv-x="1349" d="M186 313v740q0 59 43 102l168 168q43 43 103 43h293l61 289l53 -13l-59 -276q61 0 104 -43l168 -168q43 -43 43 -102v-740q0 -59 -43 -102l-168 -168q-43 -43 -102 -43h-293l-61 -287l-52 13l58 274q-61 0 -105 43l-168 168q-43 43 -43 102zM246 295q0 -16 12 -29 l193 -192q14 -14 28 -15h37l264 1248h-299q-16 0 -28 -13l-193 -192q-14 -14 -14 -29v-778zM569 59h299q16 0 29 13l193 192q12 12 12 29l2 778q0 16 -12 29l-193 192q-14 14 -29 15h-34z" />
<glyph unicode="&#xd9;" horiz-adv-x="1343" d="M215 313v1053h59v-1071q0 -16 13 -29l192 -192q14 -14 29 -15h326q16 0 28 13l193 192q12 12 12 29v1073h61v-1053q0 -59 -43 -102l-167 -168q-43 -43 -103 -43h-287q-59 0 -102 43l-168 168q-43 43 -43 102zM356 1786h82l314 -313h-82z" />
<glyph unicode="&#xda;" horiz-adv-x="1343" d="M215 313v1053h59v-1071q0 -16 13 -29l192 -192q14 -14 29 -15h326q16 0 28 13l193 192q12 12 12 29v1073h61v-1053q0 -59 -43 -102l-167 -168q-43 -43 -103 -43h-287q-59 0 -102 43l-168 168q-43 43 -43 102zM592 1473l313 313h82l-313 -313h-82z" />
<glyph unicode="&#xdb;" horiz-adv-x="1343" d="M215 313v1053h59v-1071q0 -16 13 -29l192 -192q14 -14 29 -15h326q16 0 28 13l193 192q12 12 12 29v1073h61v-1053q0 -59 -43 -102l-167 -168q-43 -43 -103 -43h-287q-59 0 -102 43l-168 168q-43 43 -43 102zM356 1516l271 270h90l270 -270h-82l-233 233l-234 -233h-82z " />
<glyph unicode="&#xdc;" horiz-adv-x="1343" d="M215 313v1053h59v-1071q0 -16 13 -29l192 -192q14 -14 29 -15h326q16 0 28 13l193 192q12 12 12 29v1073h61v-1053q0 -59 -43 -102l-167 -168q-43 -43 -103 -43h-287q-59 0 -102 43l-168 168q-43 43 -43 102zM410 1642v87h86v-87h-86zM846 1642v87h86v-87h-86z" />
<glyph unicode="&#xdd;" horiz-adv-x="1062" d="M43 1366h70l417 -694l418 694h72l-457 -762v-604h-61v604zM494 1473l313 313h82l-314 -313h-81z" />
<glyph unicode="&#xde;" horiz-adv-x="1253" d="M244 0v1366h59v-326h604q59 0 105 -45l106 -106q35 -35 35 -98v-216q0 -63 -35 -98l-106 -106q-45 -45 -105 -45h-602v-326h-61zM303 385h621q18 0 30 12l127 127q10 10 11 29l2 258q0 18 -11 29l-127 127q-14 14 -30 14h-623v-596z" />
<glyph unicode="&#xdf;" horiz-adv-x="1064" d="M158 -391v1515q0 59 39 99l98 98q45 45 104 45h295q59 0 105 -45l98 -98q39 -39 39 -99v-231q0 -39 -8 -57.5t-35 -44.5l-68 -68l68 -70q27 -27 35 -45t8 -57v-309q0 -59 -39 -99l-98 -98q-45 -45 -105 -45h-364v57h381q18 0 30 13l127 127q10 10 11 28v342q0 18 -11 29 l-84 84q-12 12 -30 12h-371v58h371q18 0 30 12l84 86q10 10 11 29v264q0 18 -11 28l-125 127q-12 12 -30 13h-330q-18 0 -31 -13l-127 -127q-10 -10 -10 -28v-1532h-57z" />
<glyph unicode="&#xe0;" horiz-adv-x="1087" d="M100 236v139q0 66 33 98l98 98q39 39 99 39h497v152q0 18 -10 29l-115 114q-12 12 -28 13h-357q-16 0 -28 -13l-111 -110l-39 39l99 102q37 39 98 39h319q59 0 99 -39l98 -98q33 -33 33 -99v-598q0 -16 12 -28l72 -72l-41 -41l-101 100l-59 -59q-41 -41 -100 -41h-338 q-59 0 -99 39l-98 98q-33 33 -33 99zM158 213q0 -18 10 -29l115 -114q12 -12 28 -13h375q16 0 29 13l102 102q10 10 10 29v352h-516q-16 0 -28 -12l-115 -115q-10 -10 -10 -29v-184zM285 1366h82l317 -313h-82z" />
<glyph unicode="&#xe1;" horiz-adv-x="1087" d="M100 236v139q0 66 33 98l98 98q39 39 99 39h497v152q0 18 -10 29l-115 114q-12 12 -28 13h-357q-16 0 -28 -13l-111 -110l-39 39l99 102q37 39 98 39h319q59 0 99 -39l98 -98q33 -33 33 -99v-598q0 -16 12 -28l72 -72l-41 -41l-101 100l-59 -59q-41 -41 -100 -41h-338 q-59 0 -99 39l-98 98q-33 33 -33 99zM158 213q0 -18 10 -29l115 -114q12 -12 28 -13h375q16 0 29 13l102 102q10 10 10 29v352h-516q-16 0 -28 -12l-115 -115q-10 -10 -10 -29v-184zM344 1053l313 313h82l-313 -313h-82z" />
<glyph unicode="&#xe2;" horiz-adv-x="1087" d="M100 236v139q0 66 33 98l98 98q39 39 99 39h497v152q0 18 -10 29l-115 114q-12 12 -28 13h-357q-16 0 -28 -13l-111 -110l-39 39l99 102q37 39 98 39h319q59 0 99 -39l98 -98q33 -33 33 -99v-598q0 -16 12 -28l72 -72l-41 -41l-101 100l-59 -59q-41 -41 -100 -41h-338 q-59 0 -99 39l-98 98q-33 33 -33 99zM158 213q0 -18 10 -29l115 -114q12 -12 28 -13h375q16 0 29 13l102 102q10 10 10 29v352h-516q-16 0 -28 -12l-115 -115q-10 -10 -10 -29v-184zM201 1096l270 270h90l270 -270h-81l-234 233l-233 -233h-82z" />
<glyph unicode="&#xe3;" horiz-adv-x="1087" d="M100 236v139q0 66 33 98l98 98q39 39 99 39h497v152q0 18 -10 29l-115 114q-12 12 -28 13h-357q-16 0 -28 -13l-111 -110l-39 39l99 102q37 39 98 39h319q59 0 99 -39l98 -98q33 -33 33 -99v-598q0 -16 12 -28l72 -72l-41 -41l-101 100l-59 -59q-41 -41 -100 -41h-338 q-59 0 -99 39l-98 98q-33 33 -33 99zM119 1239l164 102q31 20 75 21q43 0 82 -27l176 -110q20 -14 46 0l192 121l31 -48l-168 -106q-37 -25 -76 -25q-43 0 -82 27l-178 111q-25 16 -47 0l-184 -115zM158 213q0 -18 10 -29l115 -114q12 -12 28 -13h375q16 0 29 13l102 102 q10 10 10 29v352h-516q-16 0 -28 -12l-115 -115q-10 -10 -10 -29v-184z" />
<glyph unicode="&#xe4;" horiz-adv-x="1087" d="M100 236v139q0 66 33 98l98 98q39 39 99 39h497v152q0 18 -10 29l-115 114q-12 12 -28 13h-357q-16 0 -28 -13l-111 -110l-39 39l99 102q37 39 98 39h319q59 0 99 -39l98 -98q33 -33 33 -99v-598q0 -16 12 -28l72 -72l-41 -41l-101 100l-59 -59q-41 -41 -100 -41h-338 q-59 0 -99 39l-98 98q-33 33 -33 99zM158 213q0 -18 10 -29l115 -114q12 -12 28 -13h375q16 0 29 13l102 102q10 10 10 29v352h-516q-16 0 -28 -12l-115 -115q-10 -10 -10 -29v-184zM244 1280v86h86v-86h-86zM680 1280v86h86v-86h-86z" />
<glyph unicode="&#xe5;" horiz-adv-x="1087" d="M100 236v139q0 66 33 98l98 98q39 39 99 39h497v152q0 18 -10 29l-115 114q-12 12 -28 13h-357q-16 0 -28 -13l-111 -110l-39 39l99 102q16 16 33.5 25.5t27.5 9.5l10 2q-31 35 -30 86v172q0 57 38.5 96t96.5 39h164q57 0 97 -39t40 -96v-172q0 -23 -7.5 -44.5 t-15.5 -31.5l-8 -10q33 0 70 -37l98 -98q33 -33 33 -99v-598q0 -16 12 -28l72 -72l-41 -41l-101 100l-59 -59q-41 -41 -100 -41h-338q-59 0 -99 39l-98 98q-33 33 -33 99zM158 213q0 -18 10 -29l115 -114q12 -12 28 -13h375q16 0 29 13l102 102q10 10 10 29v352h-516 q-16 0 -28 -12l-115 -115q-10 -10 -10 -29v-184zM330 1071q0 -43 26.5 -69.5t69.5 -26.5h141q43 0 70 26.5t27 69.5v148q0 43 -27 69.5t-70 26.5h-141q-43 0 -69.5 -26.5t-26.5 -69.5v-148z" />
<glyph unicode="&#xe6;" horiz-adv-x="1519" d="M100 236v81q0 66 33 99l98 98q39 39 99 39h387v209q0 18 -10 29l-115 114q-12 12 -29 13h-246q-16 0 -28 -13l-111 -110l-39 39l99 102q37 39 98 39h209q59 0 98 -39l102 -102l103 102q39 39 98 39h215q59 0 99 -39l98 -98q33 -33 33 -99v-243h-617v-283q0 -18 10 -29 l115 -114q12 -12 29 -13h252q16 0 28 13l131 131l41 -41l-120 -121q-39 -39 -99 -39h-215q-59 0 -98 39l-103 102l-100 -100q-41 -41 -100 -41h-215q-59 0 -99 39l-98 98q-33 33 -33 99zM158 213q0 -18 10 -29l115 -114q12 -12 28 -13h252q16 0 29 13l115 114q10 10 10 29 v283h-406q-16 0 -28 -13l-115 -114q-10 -10 -10 -29v-127zM774 553h559v209q0 18 -10 29l-115 114q-12 12 -28 13h-252q-16 0 -29 -13l-115 -114q-10 -10 -10 -29v-209z" />
<glyph unicode="&#xe7;" horiz-adv-x="974" d="M129 236v503q0 66 33 99l98 98q39 39 98 39h326q59 0 98 -39l121 -121l-41 -41l-131 131q-12 12 -29 13h-362q-16 0 -29 -13l-114 -114q-10 -10 -11 -29v-549q0 -18 11 -29l114 -114q12 -12 29 -13h362q16 0 29 13l131 131l41 -41l-121 -121q-39 -39 -98 -39h-156 l181 -180l-205 -205l-41 41l164 164l-181 180h-88q-59 0 -98 39l-98 98q-33 33 -33 99z" />
<glyph unicode="&#xe8;" horiz-adv-x="1042" d="M129 236v503q0 66 33 99l98 98q39 39 98 39h326q59 0 98 -39l99 -98q33 -33 32 -99v-243h-727v-283q0 -18 11 -29l114 -114q12 -12 29 -13h362q16 0 29 13l131 131l41 -41l-121 -121q-39 -39 -98 -39h-326q-59 0 -98 39l-98 98q-33 33 -33 99zM186 553h670v209 q0 18 -10 29l-115 114q-12 12 -29 13h-362q-16 0 -29 -13l-114 -114q-10 -10 -11 -29v-209zM270 1366h82l318 -313h-82z" />
<glyph unicode="&#xe9;" horiz-adv-x="1042" d="M129 236v503q0 66 33 99l98 98q39 39 98 39h326q59 0 98 -39l99 -98q33 -33 32 -99v-243h-727v-283q0 -18 11 -29l114 -114q12 -12 29 -13h362q16 0 29 13l131 131l41 -41l-121 -121q-39 -39 -98 -39h-326q-59 0 -98 39l-98 98q-33 33 -33 99zM186 553h670v209 q0 18 -10 29l-115 114q-12 12 -29 13h-362q-16 0 -29 -13l-114 -114q-10 -10 -11 -29v-209zM395 1053l314 313h82l-314 -313h-82z" />
<glyph unicode="&#xea;" horiz-adv-x="1042" d="M129 236v503q0 66 33 99l98 98q39 39 98 39h326q59 0 98 -39l99 -98q33 -33 32 -99v-243h-727v-283q0 -18 11 -29l114 -114q12 -12 29 -13h362q16 0 29 13l131 131l41 -41l-121 -121q-39 -39 -98 -39h-326q-59 0 -98 39l-98 98q-33 33 -33 99zM186 553h670v209 q0 18 -10 29l-115 114q-12 12 -29 13h-362q-16 0 -29 -13l-114 -114q-10 -10 -11 -29v-209zM213 1096l270 270h90l271 -270h-82l-234 233l-233 -233h-82z" />
<glyph unicode="&#xeb;" horiz-adv-x="1042" d="M129 236v503q0 66 33 99l98 98q39 39 98 39h326q59 0 98 -39l99 -98q33 -33 32 -99v-243h-727v-283q0 -18 11 -29l114 -114q12 -12 29 -13h362q16 0 29 13l131 131l41 -41l-121 -121q-39 -39 -98 -39h-326q-59 0 -98 39l-98 98q-33 33 -33 99zM186 553h670v209 q0 18 -10 29l-115 114q-12 12 -29 13h-362q-16 0 -29 -13l-114 -114q-10 -10 -11 -29v-209zM252 1280v86h86v-86h-86zM688 1280v86h86v-86h-86z" />
<glyph unicode="&#xec;" horiz-adv-x="444" d="M-106 1366h81l314 -313h-82zM6 918v57h252v-975h-57v918h-195z" />
<glyph unicode="&#xed;" horiz-adv-x="444" d="M-4 1053l313 313h82l-313 -313h-82zM6 918v57h252v-975h-57v918h-195z" />
<glyph unicode="&#xee;" horiz-adv-x="444" d="M-100 1096l270 270h90l270 -270h-81l-234 233l-233 -233h-82zM6 918v57h252v-975h-57v918h-195z" />
<glyph unicode="&#xef;" horiz-adv-x="444" d="M-47 1280v86h86v-86h-86zM6 918v57h252v-975h-57v918h-195zM389 1280v86h86v-86h-86z" />
<glyph unicode="&#xf0;" horiz-adv-x="1042" d="M129 236v446q0 66 33 98l98 99q39 39 98 39h304l-259 258l-120 -121l-41 41l120 121l-120 120l41 41l120 -121l121 121l41 -41l-121 -120l437 -437q33 -33 32 -98v-446q0 -66 -32 -99l-99 -98q-39 -39 -98 -39h-326q-59 0 -98 39l-98 98q-33 33 -33 99zM186 213 q0 -18 11 -29l114 -114q12 -12 29 -13h362q16 0 29 13l115 114q10 10 10 29v492q0 18 -10 28l-115 115q-12 12 -29 12h-362q-16 0 -29 -12l-114 -115q-10 -10 -11 -28v-492z" />
<glyph unicode="&#xf1;" horiz-adv-x="1103" d="M143 975h58l35 -162l120 123q37 39 99 39h233q59 0 98 -39l99 -98q33 -33 33 -99v-739h-58v762q0 18 -10 29l-115 114q-12 12 -28 13h-271q-16 0 -28 -13l-152 -151q-12 -12 -12 -31v-723h-58v791zM152 1239l163 102q31 20 76 21q43 0 82 -27l176 -110q20 -14 45 0 l193 121l31 -48l-168 -106q-37 -25 -76 -25q-43 0 -82 27l-178 111q-25 16 -47 0l-185 -115z" />
<glyph unicode="&#xf2;" horiz-adv-x="1042" d="M129 236v503q0 66 33 99l98 98q39 39 98 39h326q59 0 98 -39l99 -98q33 -33 32 -99v-503q0 -66 -32 -99l-99 -98q-39 -39 -98 -39h-326q-59 0 -98 39l-98 98q-33 33 -33 99zM186 213q0 -18 11 -29l114 -114q12 -12 29 -13h362q16 0 29 13l115 114q10 10 10 29v549 q0 18 -10 29l-115 114q-12 12 -29 13h-362q-16 0 -29 -13l-114 -114q-10 -10 -11 -29v-549zM270 1366h82l318 -313h-82z" />
<glyph unicode="&#xf3;" horiz-adv-x="1042" d="M129 236v503q0 66 33 99l98 98q39 39 98 39h326q59 0 98 -39l99 -98q33 -33 32 -99v-503q0 -66 -32 -99l-99 -98q-39 -39 -98 -39h-326q-59 0 -98 39l-98 98q-33 33 -33 99zM186 213q0 -18 11 -29l114 -114q12 -12 29 -13h362q16 0 29 13l115 114q10 10 10 29v549 q0 18 -10 29l-115 114q-12 12 -29 13h-362q-16 0 -29 -13l-114 -114q-10 -10 -11 -29v-549zM395 1053l314 313h82l-314 -313h-82z" />
<glyph unicode="&#xf4;" horiz-adv-x="1042" d="M129 236v503q0 66 33 99l98 98q39 39 98 39h326q59 0 98 -39l99 -98q33 -33 32 -99v-503q0 -66 -32 -99l-99 -98q-39 -39 -98 -39h-326q-59 0 -98 39l-98 98q-33 33 -33 99zM186 213q0 -18 11 -29l114 -114q12 -12 29 -13h362q16 0 29 13l115 114q10 10 10 29v549 q0 18 -10 29l-115 114q-12 12 -29 13h-362q-16 0 -29 -13l-114 -114q-10 -10 -11 -29v-549zM205 1096l270 270h90l271 -270h-82l-234 233l-233 -233h-82z" />
<glyph unicode="&#xf5;" horiz-adv-x="1042" d="M129 236v503q0 66 33 99l98 98q39 39 98 39h326q59 0 98 -39l99 -98q33 -33 32 -99v-503q0 -66 -32 -99l-99 -98q-39 -39 -98 -39h-326q-59 0 -98 39l-98 98q-33 33 -33 99zM139 1239l164 102q31 20 76 21q43 0 82 -27l176 -110q20 -14 45 0l192 121l31 -48l-168 -106 q-37 -25 -75 -25q-43 0 -82 27l-179 111q-25 16 -47 0l-184 -115zM186 213q0 -18 11 -29l114 -114q12 -12 29 -13h362q16 0 29 13l115 114q10 10 10 29v549q0 18 -10 29l-115 114q-12 12 -29 13h-362q-16 0 -29 -13l-114 -114q-10 -10 -11 -29v-549z" />
<glyph unicode="&#xf6;" horiz-adv-x="1042" d="M129 236v503q0 66 33 99l98 98q39 39 98 39h326q59 0 98 -39l99 -98q33 -33 32 -99v-503q0 -66 -32 -99l-99 -98q-39 -39 -98 -39h-326q-59 0 -98 39l-98 98q-33 33 -33 99zM186 213q0 -18 11 -29l114 -114q12 -12 29 -13h362q16 0 29 13l115 114q10 10 10 29v549 q0 18 -10 29l-115 114q-12 12 -29 13h-362q-16 0 -29 -13l-114 -114q-10 -10 -11 -29v-549zM260 1280v86h86v-86h-86zM696 1280v86h86v-86h-86z" />
<glyph unicode="&#xf7;" d="M88 457v57h975v-57h-975zM532 0v86h86v-86h-86zM532 889v86h86v-86h-86z" />
<glyph unicode="&#xf8;" horiz-adv-x="1042" d="M129 236v503q0 66 33 99l98 98q39 39 98 39h293l64 196l51 -18l-59 -180q39 0 75 -37l99 -98q33 -33 32 -99v-503q0 -66 -32 -99l-99 -98q-39 -39 -98 -39h-293l-63 -195l-49 17l59 180q-41 0 -78 37l-98 98q-33 33 -33 99zM186 213q0 -18 11 -29l114 -114q12 -12 29 -13 h16l277 861h-293q-16 0 -29 -13l-114 -114q-10 -10 -11 -29v-549zM410 57h292q16 0 29 13l115 114q10 10 10 29v549q0 18 -10 29l-115 114q-12 12 -29 13h-14z" />
<glyph unicode="&#xf9;" horiz-adv-x="1103" d="M186 236v739h58v-762q0 -18 10 -29l115 -114q12 -12 28 -13h271q16 0 28 13l152 151q12 12 12 31v723h58v-791l43 -184h-58l-35 162l-120 -123q-37 -39 -99 -39h-233q-59 0 -99 39l-98 98q-33 33 -33 99zM279 1366h81l318 -313h-82z" />
<glyph unicode="&#xfa;" horiz-adv-x="1103" d="M186 236v739h58v-762q0 -18 10 -29l115 -114q12 -12 28 -13h271q16 0 28 13l152 151q12 12 12 31v723h58v-791l43 -184h-58l-35 162l-120 -123q-37 -39 -99 -39h-233q-59 0 -99 39l-98 98q-33 33 -33 99zM403 1053l314 313h82l-314 -313h-82z" />
<glyph unicode="&#xfb;" horiz-adv-x="1103" d="M186 236v739h58v-762q0 -18 10 -29l115 -114q12 -12 28 -13h271q16 0 28 13l152 151q12 12 12 31v723h58v-791l43 -184h-58l-35 162l-120 -123q-37 -39 -99 -39h-233q-59 0 -99 39l-98 98q-33 33 -33 99zM236 1096l270 270h90l270 -270h-82l-233 233l-234 -233h-81z" />
<glyph unicode="&#xfc;" horiz-adv-x="1103" d="M186 236v739h58v-762q0 -18 10 -29l115 -114q12 -12 28 -13h271q16 0 28 13l152 151q12 12 12 31v723h58v-791l43 -184h-58l-35 162l-120 -123q-37 -39 -99 -39h-233q-59 0 -99 39l-98 98q-33 33 -33 99zM291 1280v86h86v-86h-86zM727 1280v86h86v-86h-86z" />
<glyph unicode="&#xfd;" horiz-adv-x="858" d="M29 975h59l328 -893l325 893h60l-502 -1364h-57l143 391zM371 1053l313 313h82l-313 -313h-82z" />
<glyph unicode="&#xfe;" horiz-adv-x="1099" d="M186 -391v1757h58v-553l123 123q39 39 98 39h276q59 0 99 -39l98 -98q33 -33 33 -99v-503q0 -66 -33 -99l-98 -98q-39 -39 -99 -39h-272q-63 0 -102 39l-123 123v-553h-58zM244 262q0 -18 10 -29l164 -163q12 -12 28 -13h314q16 0 28 13l115 114q10 10 10 29v549 q0 18 -10 29l-115 114q-12 12 -28 13h-314q-16 0 -28 -13l-164 -164q-10 -10 -10 -28v-451z" />
<glyph unicode="&#xff;" horiz-adv-x="858" d="M29 975h59l328 -893l325 893h60l-502 -1364h-57l143 391zM154 1280v86h86v-86h-86zM590 1280v86h86v-86h-86z" />
<glyph unicode="&#x152;" horiz-adv-x="1695" d="M186 313v740q0 59 43 102l168 168q43 43 103 43h1009v-59h-602v-594h602v-60h-602v-592h602v-61h-1009q-59 0 -103 43l-168 168q-43 43 -43 102zM246 295q0 -16 12 -29l193 -192q12 -12 28 -13h369v1246h-367q-16 0 -28 -13l-193 -192q-14 -14 -14 -29v-778z" />
<glyph unicode="&#x153;" horiz-adv-x="1603" d="M129 236v503q0 66 33 99l98 98q39 39 98 39h271q59 0 98 -39l102 -102l103 102q39 39 98 39h215q59 0 98 -39l99 -98q33 -33 33 -99v-243h-617v-283q0 -18 10 -29l115 -114q12 -12 29 -13h252q16 0 28 13l131 131l41 -41l-121 -121q-39 -39 -98 -39h-215q-59 0 -98 39 l-103 102l-102 -102q-39 -39 -98 -39h-271q-59 0 -98 39l-98 98q-33 33 -33 99zM186 213q0 -18 11 -29l114 -114q12 -12 29 -13h307q16 0 29 13l115 114q10 10 10 29v549q0 18 -10 29l-115 114q-12 12 -29 13h-307q-16 0 -29 -13l-114 -114q-10 -10 -11 -29v-549zM858 553 h559v209q0 18 -10 29l-115 114q-12 12 -28 13h-252q-16 0 -29 -13l-115 -114q-10 -10 -10 -29v-209z" />
<glyph unicode="&#x178;" horiz-adv-x="1062" d="M43 1366h70l417 -694l418 694h72l-457 -762v-604h-61v604zM270 1642v87h86v-87h-86zM707 1642v87h86v-87h-86z" />
<glyph unicode="&#x2c6;" horiz-adv-x="849" d="M111 1096l270 270h90l270 -270h-82l-233 233l-233 -233h-82z" />
<glyph unicode="&#x2dc;" horiz-adv-x="849" d="M43 1239l164 102q31 20 76 21q41 0 82 -27l176 -110q20 -14 45 0l192 121l31 -48l-168 -106q-37 -25 -76 -25q-41 0 -82 27l-178 111q-23 16 -47 0l-184 -115z" />
<glyph unicode="&#x3bc;" d="M209 -391v1366h57v-733q0 -18 10 -29l144 -143q12 -12 29 -13h241q16 0 29 13l151 151q12 12 13 31v723h57v-791l43 -184h-57l-35 162l-121 -123q-39 -39 -98 -39h-205q-59 0 -98 39l-103 102v-532h-57z" />
<glyph unicode="&#x2000;" horiz-adv-x="892" />
<glyph unicode="&#x2001;" horiz-adv-x="1785" />
<glyph unicode="&#x2002;" horiz-adv-x="892" />
<glyph unicode="&#x2003;" horiz-adv-x="1785" />
<glyph unicode="&#x2004;" horiz-adv-x="593" />
<glyph unicode="&#x2005;" horiz-adv-x="446" />
<glyph unicode="&#x2006;" horiz-adv-x="296" />
<glyph unicode="&#x2007;" horiz-adv-x="296" />
<glyph unicode="&#x2008;" horiz-adv-x="223" />
<glyph unicode="&#x2009;" horiz-adv-x="356" />
<glyph unicode="&#x200a;" horiz-adv-x="98" />
<glyph unicode="&#x2010;" horiz-adv-x="983" d="M205 459v57h573v-57h-573z" />
<glyph unicode="&#x2011;" horiz-adv-x="983" d="M205 459v57h573v-57h-573z" />
<glyph unicode="&#x2012;" horiz-adv-x="983" d="M205 459v57h573v-57h-573z" />
<glyph unicode="&#x2013;" d="M63 459v57h1024v-57h-1024z" />
<glyph unicode="&#x2014;" horiz-adv-x="2048" d="M205 516h1638v-57h-1636z" />
<glyph unicode="&#x2018;" horiz-adv-x="575" d="M260 965v237q0 61 41 103l80 79l43 -41l-92 -94q-10 -10 -10 -28v-256h-62z" />
<glyph unicode="&#x2019;" horiz-adv-x="575" d="M152 987l92 94q10 10 10 29v256h61v-238q0 -61 -41 -102l-79 -80z" />
<glyph unicode="&#x201a;" horiz-adv-x="575" d="M152 -268l92 94q10 10 10 29v256h61v-238q0 -61 -41 -102l-79 -80z" />
<glyph unicode="&#x201c;" horiz-adv-x="907" d="M260 965v237q0 61 41 103l80 79l43 -41l-92 -94q-10 -10 -10 -28v-256h-62zM592 965v237q0 61 41 103l80 79l43 -41l-92 -94q-10 -10 -11 -28v-256h-61z" />
<glyph unicode="&#x201d;" horiz-adv-x="907" d="M152 987l92 94q10 10 10 29v256h61v-238q0 -61 -41 -102l-79 -80zM483 987l92 94q10 10 11 29v256h61v-238q0 -61 -41 -102l-80 -80z" />
<glyph unicode="&#x201e;" horiz-adv-x="907" d="M152 -268l92 94q10 10 10 29v256h61v-238q0 -61 -41 -102l-79 -80zM483 -268l92 94q10 10 11 29v256h61v-238q0 -61 -41 -102l-80 -80z" />
<glyph unicode="&#x2022;" horiz-adv-x="1024" d="M401 573v222h222v-222h-222z" />
<glyph unicode="&#x2026;" horiz-adv-x="2048" d="M297 0v86h86v-86h-86zM981 0v86h86v-86h-86zM1665 0v86h86v-86h-86z" />
<glyph unicode="&#x202f;" horiz-adv-x="356" />
<glyph unicode="&#x2039;" horiz-adv-x="745" d="M186 487q0 45 54 99l280 280l39 -39l-297 -299q-41 -41 0 -82l291 -292l-39 -39l-274 274q-54 53 -54 98z" />
<glyph unicode="&#x203a;" horiz-adv-x="745" d="M186 827l39 39l281 -280q53 -53 53 -98.5t-53 -98.5l-275 -274l-38 39l290 292q41 41 0 82z" />
<glyph unicode="&#x205f;" horiz-adv-x="446" />
<glyph unicode="&#x2122;" horiz-adv-x="1726" d="M14 1319v47h623v-47h-285v-840h-53v840h-285zM719 479v887h94l287 -840l289 840h94v-887h-53v842l-287 -842h-84l-287 842v-842h-53z" />
<glyph unicode="&#xe000;" horiz-adv-x="975" d="M0 975h975v-975h-975v975z" />
<glyph unicode="&#xfb01;" horiz-adv-x="987" d="M57 918v57h129v155q0 66 33 99l98 98q39 39 99 39h133v-57h-152q-16 0 -28 -13l-115 -114q-10 -10 -10 -29v-178h557v-975h-58v918h-499v-918h-58v918h-129zM727 1280v86h86v-86h-86z" />
<glyph unicode="&#xfb02;" horiz-adv-x="987" d="M57 918v57h129v155q0 66 33 99l98 98q39 39 99 39h385v-1366h-58v1309h-346q-16 0 -28 -13l-115 -114q-10 -10 -10 -29v-178h305v-57h-305v-918h-58v918h-129z" />
<glyph unicode="&#xfb03;" horiz-adv-x="1656" d="M1218 918v57h252v-975h-57v918h-195zM1396 1280v86h86v-86h-86zM663 918v57h129v155q0 66 33 99l98 98q39 39 99 39h133v-57h-152q-16 0 -28 -13l-115 -114q-10 -10 -10 -29v-178h305v-57h-305v-918h-58v918h-129zM57 918v57h129v155q0 66 33 99l98 98q39 39 99 39h133 v-57h-152q-16 0 -28 -13l-115 -114q-10 -10 -10 -29v-178h305v-57h-305v-918h-58v918h-129z" />
<glyph unicode="&#xfb04;" horiz-adv-x="1642" d="M1204 1309v57h252v-1366h-58v1309h-194zM663 918v57h129v155q0 66 33 99l98 98q39 39 99 39h133v-57h-152q-16 0 -28 -13l-115 -114q-10 -10 -10 -29v-178h305v-57h-305v-918h-58v918h-129zM57 918v57h129v155q0 66 33 99l98 98q39 39 99 39h133v-57h-152q-16 0 -28 -13 l-115 -114q-10 -10 -10 -29v-178h305v-57h-305v-918h-58v918h-129z" />
</font>
</defs>
</svg>
